<svg width="123" height="107" viewBox="0 0 123 107" fill="none" xmlns="http://www.w3.org/2000/svg">
<path d="M52.7912 31.6666C50.3898 31.6666 48.3383 30.8353 46.6368 29.1728C44.9352 27.5103 44.0839 25.4784 44.0828 23.077C44.0828 21.0187 44.703 19.1846 45.9433 17.5749C47.1835 15.9652 48.8065 14.936 50.812 14.4874C51.4717 12.0596 52.7912 10.0937 54.7703 8.5895C56.7495 7.08534 58.9926 6.33325 61.4995 6.33325C64.587 6.33325 67.2064 7.40886 69.3576 9.56009C71.5088 11.7113 72.5839 14.3301 72.5828 17.4166C74.4037 17.6277 75.9147 18.413 77.1159 19.7726C78.3172 21.1321 78.9172 22.7218 78.9162 24.5416C78.9162 26.5208 78.2237 28.2033 76.8388 29.5893C75.454 30.9752 73.7714 31.6676 71.7912 31.6666H52.7912ZM52.7912 28.4999H71.7912C72.8995 28.4999 73.8363 28.1173 74.6016 27.352C75.3669 26.5867 75.7495 25.6499 75.7495 24.5416C75.7495 23.4333 75.3669 22.4964 74.6016 21.7312C73.8363 20.9659 72.8995 20.5833 71.7912 20.5833H69.4162V17.4166C69.4162 15.2263 68.644 13.359 67.0998 11.8148C65.5555 10.2705 63.6887 9.49886 61.4995 9.49992C59.3103 9.50097 57.4435 10.2731 55.8993 11.8163C54.355 13.3596 53.5828 15.2263 53.5828 17.4166H52.7912C51.2606 17.4166 49.9544 17.9576 48.8724 19.0395C47.7905 20.1214 47.2495 21.4277 47.2495 22.9583C47.2495 24.4888 47.7905 25.7951 48.8724 26.877C49.9544 27.9589 51.2606 28.4999 52.7912 28.4999Z" fill="#D25400"/>
<path d="M25.2915 68.552C25.2915 66.888 25.6515 65.408 26.3715 64.112C27.0915 62.8 28.0915 61.784 29.3715 61.064C30.6675 60.328 32.1315 59.96 33.7635 59.96C35.7635 59.96 37.4755 60.488 38.8995 61.544C40.3235 62.6 41.2755 64.04 41.7555 65.864H37.2435C36.9075 65.16 36.4275 64.624 35.8035 64.256C35.1955 63.888 34.4995 63.704 33.7155 63.704C32.4515 63.704 31.4275 64.144 30.6435 65.024C29.8595 65.904 29.4675 67.08 29.4675 68.552C29.4675 70.024 29.8595 71.2 30.6435 72.08C31.4275 72.96 32.4515 73.4 33.7155 73.4C34.4995 73.4 35.1955 73.216 35.8035 72.848C36.4275 72.48 36.9075 71.944 37.2435 71.24H41.7555C41.2755 73.064 40.3235 74.504 38.8995 75.56C37.4755 76.6 35.7635 77.12 33.7635 77.12C32.1315 77.12 30.6675 76.76 29.3715 76.04C28.0915 75.304 27.0915 74.288 26.3715 72.992C25.6515 71.696 25.2915 70.216 25.2915 68.552ZM48.3728 59.24V77H44.2688V59.24H48.3728ZM57.4429 77.192C56.1309 77.192 54.9469 76.912 53.8909 76.352C52.8509 75.792 52.0269 74.992 51.4189 73.952C50.8269 72.912 50.5309 71.696 50.5309 70.304C50.5309 68.928 50.8349 67.72 51.4429 66.68C52.0509 65.624 52.8829 64.816 53.9389 64.256C54.9949 63.696 56.1789 63.416 57.4909 63.416C58.8029 63.416 59.9869 63.696 61.0429 64.256C62.0989 64.816 62.9309 65.624 63.5389 66.68C64.1469 67.72 64.4509 68.928 64.4509 70.304C64.4509 71.68 64.1389 72.896 63.5149 73.952C62.9069 74.992 62.0669 75.792 60.9949 76.352C59.9389 76.912 58.7549 77.192 57.4429 77.192ZM57.4429 73.64C58.2269 73.64 58.8909 73.352 59.4349 72.776C59.9949 72.2 60.2749 71.376 60.2749 70.304C60.2749 69.232 60.0029 68.408 59.4589 67.832C58.9309 67.256 58.2749 66.968 57.4909 66.968C56.6909 66.968 56.0269 67.256 55.4989 67.832C54.9709 68.392 54.7069 69.216 54.7069 70.304C54.7069 71.376 54.9629 72.2 55.4749 72.776C56.0029 73.352 56.6589 73.64 57.4429 73.64ZM79.8521 63.608V77H75.7481V75.176C75.3321 75.768 74.7641 76.248 74.0441 76.616C73.3401 76.968 72.5561 77.144 71.6921 77.144C70.6681 77.144 69.7641 76.92 68.9801 76.472C68.1961 76.008 67.5881 75.344 67.1561 74.48C66.7241 73.616 66.5081 72.6 66.5081 71.432V63.608H70.5881V70.88C70.5881 71.776 70.8201 72.472 71.2841 72.968C71.7481 73.464 72.3721 73.712 73.1561 73.712C73.9561 73.712 74.5881 73.464 75.0521 72.968C75.5161 72.472 75.7481 71.776 75.7481 70.88V63.608H79.8521ZM81.984 70.28C81.984 68.904 82.24 67.696 82.752 66.656C83.28 65.616 83.992 64.816 84.888 64.256C85.784 63.696 86.784 63.416 87.888 63.416C88.768 63.416 89.568 63.6 90.288 63.968C91.024 64.336 91.6 64.832 92.016 65.456V59.24H96.12V77H92.016V75.08C91.632 75.72 91.08 76.232 90.36 76.616C89.656 77 88.832 77.192 87.888 77.192C86.784 77.192 85.784 76.912 84.888 76.352C83.992 75.776 83.28 74.968 82.752 73.928C82.24 72.872 81.984 71.656 81.984 70.28ZM92.016 70.304C92.016 69.28 91.728 68.472 91.152 67.88C90.592 67.288 89.904 66.992 89.088 66.992C88.272 66.992 87.576 67.288 87 67.88C86.44 68.456 86.16 69.256 86.16 70.28C86.16 71.304 86.44 72.12 87 72.728C87.576 73.32 88.272 73.616 89.088 73.616C89.904 73.616 90.592 73.32 91.152 72.728C91.728 72.136 92.016 71.328 92.016 70.304Z" fill="black"/>
<path d="M5.95951 101.14C5.03951 101.14 4.21285 100.98 3.47951 100.66C2.75951 100.327 2.19285 99.8733 1.77951 99.3C1.36618 98.7133 1.15285 98.04 1.13951 97.28H3.07951C3.14618 97.9333 3.41285 98.4867 3.87951 98.94C4.35951 99.38 5.05285 99.6 5.95951 99.6C6.82618 99.6 7.50618 99.3867 7.99951 98.96C8.50618 98.52 8.75951 97.96 8.75951 97.28C8.75951 96.7467 8.61285 96.3133 8.31951 95.98C8.02618 95.6467 7.65951 95.3933 7.21951 95.22C6.77951 95.0467 6.18618 94.86 5.43951 94.66C4.51951 94.42 3.77951 94.18 3.21951 93.94C2.67285 93.7 2.19951 93.3267 1.79951 92.82C1.41285 92.3 1.21951 91.6067 1.21951 90.74C1.21951 89.98 1.41285 89.3067 1.79951 88.72C2.18618 88.1333 2.72618 87.68 3.41951 87.36C4.12618 87.04 4.93285 86.88 5.83951 86.88C7.14618 86.88 8.21285 87.2067 9.03951 87.86C9.87951 88.5133 10.3528 89.38 10.4595 90.46H8.45951C8.39285 89.9267 8.11285 89.46 7.61951 89.06C7.12618 88.6467 6.47285 88.44 5.65951 88.44C4.89951 88.44 4.27951 88.64 3.79951 89.04C3.31951 89.4267 3.07951 89.9733 3.07951 90.68C3.07951 91.1867 3.21951 91.6 3.49951 91.92C3.79285 92.24 4.14618 92.4867 4.55951 92.66C4.98618 92.82 5.57951 93.0067 6.33951 93.22C7.25951 93.4733 7.99951 93.7267 8.55951 93.98C9.11951 94.22 9.59951 94.6 9.99951 95.12C10.3995 95.6267 10.5995 96.32 10.5995 97.2C10.5995 97.88 10.4195 98.52 10.0595 99.12C9.69951 99.72 9.16618 100.207 8.45951 100.58C7.75285 100.953 6.91951 101.14 5.95951 101.14ZM15.4978 91.54V98C15.4978 98.5333 15.6111 98.9133 15.8378 99.14C16.0645 99.3533 16.4578 99.46 17.0178 99.46H18.3578V101H16.7178C15.7045 101 14.9445 100.767 14.4378 100.3C13.9311 99.8333 13.6778 99.0667 13.6778 98V91.54H12.2578V90.04H13.6778V87.28H15.4978V90.04H18.3578V91.54H15.4978ZM25.3429 101.18C24.3163 101.18 23.3829 100.947 22.5429 100.48C21.7163 100.013 21.0629 99.3533 20.5829 98.5C20.1163 97.6333 19.8829 96.6333 19.8829 95.5C19.8829 94.38 20.1229 93.3933 20.6029 92.54C21.0963 91.6733 21.7629 91.0133 22.6029 90.56C23.4429 90.0933 24.3829 89.86 25.4229 89.86C26.4629 89.86 27.4029 90.0933 28.2429 90.56C29.083 91.0133 29.7429 91.6667 30.2229 92.52C30.7163 93.3733 30.9629 94.3667 30.9629 95.5C30.9629 96.6333 30.7096 97.6333 30.2029 98.5C29.7096 99.3533 29.0363 100.013 28.1829 100.48C27.3296 100.947 26.3829 101.18 25.3429 101.18ZM25.3429 99.58C25.9963 99.58 26.6096 99.4267 27.1829 99.12C27.7563 98.8133 28.2163 98.3533 28.5629 97.74C28.9229 97.1267 29.1029 96.38 29.1029 95.5C29.1029 94.62 28.9296 93.8733 28.5829 93.26C28.2363 92.6467 27.7829 92.1933 27.2229 91.9C26.6629 91.5933 26.0563 91.44 25.4029 91.44C24.7363 91.44 24.1229 91.5933 23.5629 91.9C23.0163 92.1933 22.5763 92.6467 22.2429 93.26C21.9096 93.8733 21.7429 94.62 21.7429 95.5C21.7429 96.3933 21.9029 97.1467 22.2229 97.76C22.5563 98.3733 22.9963 98.8333 23.5429 99.14C24.0896 99.4333 24.6896 99.58 25.3429 99.58ZM35.1759 91.82C35.4959 91.1933 35.9493 90.7067 36.5359 90.36C37.1359 90.0133 37.8626 89.84 38.7159 89.84V91.72H38.2359C36.1959 91.72 35.1759 92.8267 35.1759 95.04V101H33.3559V90.04H35.1759V91.82ZM40.1369 95.48C40.1369 94.36 40.3635 93.38 40.8169 92.54C41.2702 91.6867 41.8902 91.0267 42.6769 90.56C43.4769 90.0933 44.3635 89.86 45.3369 89.86C46.2969 89.86 47.1302 90.0667 47.8369 90.48C48.5435 90.8933 49.0702 91.4133 49.4169 92.04V90.04H51.2569V101H49.4169V98.96C49.0569 99.6 48.5169 100.133 47.7969 100.56C47.0902 100.973 46.2635 101.18 45.3169 101.18C44.3435 101.18 43.4635 100.94 42.6769 100.46C41.8902 99.98 41.2702 99.3067 40.8169 98.44C40.3635 97.5733 40.1369 96.5867 40.1369 95.48ZM49.4169 95.5C49.4169 94.6733 49.2502 93.9533 48.9169 93.34C48.5835 92.7267 48.1302 92.26 47.5569 91.94C46.9969 91.6067 46.3769 91.44 45.6969 91.44C45.0169 91.44 44.3969 91.6 43.8369 91.92C43.2769 92.24 42.8302 92.7067 42.4969 93.32C42.1635 93.9333 41.9969 94.6533 41.9969 95.48C41.9969 96.32 42.1635 97.0533 42.4969 97.68C42.8302 98.2933 43.2769 98.7667 43.8369 99.1C44.3969 99.42 45.0169 99.58 45.6969 99.58C46.3769 99.58 46.9969 99.42 47.5569 99.1C48.1302 98.7667 48.5835 98.2933 48.9169 97.68C49.2502 97.0533 49.4169 96.3267 49.4169 95.5ZM58.8525 89.86C59.7991 89.86 60.6258 90.0667 61.3325 90.48C62.0525 90.8933 62.5858 91.4133 62.9325 92.04V90.04H64.7725V101.24C64.7725 102.24 64.5591 103.127 64.1325 103.9C63.7058 104.687 63.0925 105.3 62.2925 105.74C61.5058 106.18 60.5858 106.4 59.5325 106.4C58.0925 106.4 56.8925 106.06 55.9325 105.38C54.9725 104.7 54.4058 103.773 54.2325 102.6H56.0325C56.2325 103.267 56.6458 103.8 57.2725 104.2C57.8991 104.613 58.6525 104.82 59.5325 104.82C60.5325 104.82 61.3458 104.507 61.9725 103.88C62.6125 103.253 62.9325 102.373 62.9325 101.24V98.94C62.5725 99.58 62.0391 100.113 61.3325 100.54C60.6258 100.967 59.7991 101.18 58.8525 101.18C57.8791 101.18 56.9925 100.94 56.1925 100.46C55.4058 99.98 54.7858 99.3067 54.3325 98.44C53.8791 97.5733 53.6525 96.5867 53.6525 95.48C53.6525 94.36 53.8791 93.38 54.3325 92.54C54.7858 91.6867 55.4058 91.0267 56.1925 90.56C56.9925 90.0933 57.8791 89.86 58.8525 89.86ZM62.9325 95.5C62.9325 94.6733 62.7658 93.9533 62.4325 93.34C62.0991 92.7267 61.6458 92.26 61.0725 91.94C60.5125 91.6067 59.8925 91.44 59.2125 91.44C58.5325 91.44 57.9125 91.6 57.3525 91.92C56.7925 92.24 56.3458 92.7067 56.0125 93.32C55.6791 93.9333 55.5125 94.6533 55.5125 95.48C55.5125 96.32 55.6791 97.0533 56.0125 97.68C56.3458 98.2933 56.7925 98.7667 57.3525 99.1C57.9125 99.42 58.5325 99.58 59.2125 99.58C59.8925 99.58 60.5125 99.42 61.0725 99.1C61.6458 98.7667 62.0991 98.2933 62.4325 97.68C62.7658 97.0533 62.9325 96.3267 62.9325 95.5ZM77.8481 95.1C77.8481 95.4467 77.8281 95.8133 77.7881 96.2H69.0281C69.0948 97.28 69.4614 98.1267 70.1281 98.74C70.8081 99.34 71.6281 99.64 72.5881 99.64C73.3748 99.64 74.0281 99.46 74.5481 99.1C75.0814 98.7267 75.4548 98.2333 75.6681 97.62H77.6281C77.3348 98.6733 76.7481 99.5333 75.8681 100.2C74.9881 100.853 73.8948 101.18 72.5881 101.18C71.5481 101.18 70.6148 100.947 69.7881 100.48C68.9748 100.013 68.3348 99.3533 67.8681 98.5C67.4014 97.6333 67.1681 96.6333 67.1681 95.5C67.1681 94.3667 67.3948 93.3733 67.8481 92.52C68.3014 91.6667 68.9348 91.0133 69.7481 90.56C70.5748 90.0933 71.5214 89.86 72.5881 89.86C73.6281 89.86 74.5481 90.0867 75.3481 90.54C76.1481 90.9933 76.7614 91.62 77.1881 92.42C77.6281 93.2067 77.8481 94.1 77.8481 95.1ZM75.9681 94.72C75.9681 94.0267 75.8148 93.4333 75.5081 92.94C75.2014 92.4333 74.7814 92.0533 74.2481 91.8C73.7281 91.5333 73.1481 91.4 72.5081 91.4C71.5881 91.4 70.8014 91.6933 70.1481 92.28C69.5081 92.8667 69.1414 93.68 69.0481 94.72H75.9681ZM90.0425 91.54H87.7425V101H85.9225V91.54H84.5025V90.04H85.9225V89.26C85.9225 88.0333 86.2358 87.14 86.8625 86.58C87.5025 86.0067 88.5225 85.72 89.9225 85.72V87.24C89.1225 87.24 88.5558 87.4 88.2225 87.72C87.9025 88.0267 87.7425 88.54 87.7425 89.26V90.04H90.0425V91.54ZM93.9845 91.82C94.3045 91.1933 94.7578 90.7067 95.3445 90.36C95.9445 90.0133 96.6712 89.84 97.5245 89.84V91.72H97.0445C95.0045 91.72 93.9845 92.8267 93.9845 95.04V101H92.1645V90.04H93.9845V91.82ZM109.625 95.1C109.625 95.4467 109.605 95.8133 109.565 96.2H100.805C100.872 97.28 101.239 98.1267 101.905 98.74C102.585 99.34 103.405 99.64 104.365 99.64C105.152 99.64 105.805 99.46 106.325 99.1C106.859 98.7267 107.232 98.2333 107.445 97.62H109.405C109.112 98.6733 108.525 99.5333 107.645 100.2C106.765 100.853 105.672 101.18 104.365 101.18C103.325 101.18 102.392 100.947 101.565 100.48C100.752 100.013 100.112 99.3533 99.6454 98.5C99.1788 97.6333 98.9454 96.6333 98.9454 95.5C98.9454 94.3667 99.1721 93.3733 99.6254 92.52C100.079 91.6667 100.712 91.0133 101.525 90.56C102.352 90.0933 103.299 89.86 104.365 89.86C105.405 89.86 106.325 90.0867 107.125 90.54C107.925 90.9933 108.539 91.62 108.965 92.42C109.405 93.2067 109.625 94.1 109.625 95.1ZM107.745 94.72C107.745 94.0267 107.592 93.4333 107.285 92.94C106.979 92.4333 106.559 92.0533 106.025 91.8C105.505 91.5333 104.925 91.4 104.285 91.4C103.365 91.4 102.579 91.6933 101.925 92.28C101.285 92.8667 100.919 93.68 100.825 94.72H107.745ZM122.028 95.1C122.028 95.4467 122.008 95.8133 121.968 96.2H113.208C113.274 97.28 113.641 98.1267 114.308 98.74C114.988 99.34 115.808 99.64 116.768 99.64C117.554 99.64 118.208 99.46 118.728 99.1C119.261 98.7267 119.634 98.2333 119.848 97.62H121.808C121.514 98.6733 120.928 99.5333 120.048 100.2C119.168 100.853 118.074 101.18 116.768 101.18C115.728 101.18 114.794 100.947 113.968 100.48C113.154 100.013 112.514 99.3533 112.048 98.5C111.581 97.6333 111.348 96.6333 111.348 95.5C111.348 94.3667 111.574 93.3733 112.028 92.52C112.481 91.6667 113.114 91.0133 113.928 90.56C114.754 90.0933 115.701 89.86 116.768 89.86C117.808 89.86 118.728 90.0867 119.528 90.54C120.328 90.9933 120.941 91.62 121.368 92.42C121.808 93.2067 122.028 94.1 122.028 95.1ZM120.148 94.72C120.148 94.0267 119.994 93.4333 119.688 92.94C119.381 92.4333 118.961 92.0533 118.428 91.8C117.908 91.5333 117.328 91.4 116.688 91.4C115.768 91.4 114.981 91.6933 114.328 92.28C113.688 92.8667 113.321 93.68 113.228 94.72H120.148Z" fill="black"/>
</svg>
