<svg width="154" height="108" viewBox="0 0 154 108" fill="none" xmlns="http://www.w3.org/2000/svg">
<path d="M63.6999 10.5L61.3858 12.0447C59.7252 13.1505 58.8949 13.7034 58.4446 14.547C57.9943 15.3924 57.9981 16.3842 58.0057 18.3659C58.0133 20.7561 58.0361 23.188 58.0969 25.6504C58.2432 31.4928 58.3154 34.4131 60.4643 36.5601C62.6112 38.7071 65.5714 38.7831 71.4917 38.9313C75.1638 39.0231 78.8376 39.0231 82.5097 38.9313C88.43 38.7831 91.3902 38.709 93.5372 36.5601C95.6841 34.4131 95.7582 31.4928 95.9045 25.6504C95.9653 23.188 95.9881 20.7561 95.9957 18.3678C96.0014 16.3842 96.0052 15.3924 95.5549 14.5488C95.1065 13.7034 94.2763 13.1505 92.6157 12.0447L90.2996 10.5" stroke="#D25400" stroke-width="1.5" stroke-linecap="round" stroke-linejoin="round"/>
<path d="M58 16.1997L71.1345 24.0808C73.9921 25.7946 75.4209 26.6496 76.9998 26.6496C78.5786 26.6496 80.0074 25.7946 82.865 24.0789L95.9995 16.1997" stroke="#D25400" stroke-width="1.5" stroke-linecap="round" stroke-linejoin="round"/>
<path d="M63.6999 19.9998V8.59991C63.6999 5.01655 63.6999 3.22677 64.8133 2.11339C65.9267 1 67.7165 1 71.2998 1H82.6997C86.283 1 88.0728 1 89.1862 2.11339C90.2996 3.22677 90.2996 5.01655 90.2996 8.59991V19.9998M73.1998 16.1998H80.7997M73.1998 8.59991H80.7997" stroke="#D25400" stroke-width="1.5" stroke-linecap="round" stroke-linejoin="round"/>
<path d="M48.2357 66.424C48.2997 64.712 48.8597 63.392 49.9157 62.464C50.9717 61.536 52.4037 61.072 54.2117 61.072C55.4117 61.072 56.4357 61.28 57.2837 61.696C58.1477 62.112 58.7957 62.68 59.2277 63.4C59.6757 64.12 59.8997 64.928 59.8997 65.824C59.8997 66.88 59.6357 67.744 59.1077 68.416C58.5797 69.072 57.9637 69.52 57.2597 69.76V69.856C58.1717 70.16 58.8917 70.664 59.4197 71.368C59.9477 72.072 60.2117 72.976 60.2117 74.08C60.2117 75.072 59.9797 75.952 59.5157 76.72C59.0677 77.472 58.4037 78.064 57.5237 78.496C56.6597 78.928 55.6277 79.144 54.4277 79.144C52.5077 79.144 50.9717 78.672 49.8197 77.728C48.6837 76.784 48.0837 75.36 48.0197 73.456H52.0037C52.0197 74.16 52.2197 74.72 52.6037 75.136C52.9877 75.536 53.5477 75.736 54.2837 75.736C54.9077 75.736 55.3877 75.56 55.7237 75.208C56.0757 74.84 56.2517 74.36 56.2517 73.768C56.2517 73 56.0037 72.448 55.5077 72.112C55.0277 71.76 54.2517 71.584 53.1797 71.584H52.4117V68.248H53.1797C53.9957 68.248 54.6517 68.112 55.1477 67.84C55.6597 67.552 55.9157 67.048 55.9157 66.328C55.9157 65.752 55.7557 65.304 55.4357 64.984C55.1157 64.664 54.6757 64.504 54.1157 64.504C53.5077 64.504 53.0517 64.688 52.7477 65.056C52.4597 65.424 52.2917 65.88 52.2437 66.424H48.2357ZM74.959 65.056H67.471V68.368C67.791 68.016 68.239 67.728 68.815 67.504C69.391 67.28 70.015 67.168 70.687 67.168C71.887 67.168 72.879 67.44 73.663 67.984C74.463 68.528 75.047 69.232 75.415 70.096C75.783 70.96 75.967 71.896 75.967 72.904C75.967 74.776 75.439 76.264 74.383 77.368C73.327 78.456 71.839 79 69.919 79C68.639 79 67.527 78.784 66.583 78.352C65.639 77.904 64.911 77.288 64.399 76.504C63.887 75.72 63.607 74.816 63.559 73.792H67.567C67.663 74.288 67.895 74.704 68.263 75.04C68.631 75.36 69.135 75.52 69.775 75.52C70.527 75.52 71.087 75.28 71.455 74.8C71.823 74.32 72.007 73.68 72.007 72.88C72.007 72.096 71.815 71.496 71.431 71.08C71.047 70.664 70.487 70.456 69.751 70.456C69.207 70.456 68.759 70.592 68.407 70.864C68.055 71.12 67.823 71.464 67.711 71.896H63.751V61.456H74.959V65.056ZM82.6483 73.864C82.8883 75.128 83.6243 75.76 84.8563 75.76C85.7043 75.76 86.3043 75.384 86.6563 74.632C87.0083 73.88 87.1843 72.656 87.1843 70.96C86.8323 71.456 86.3523 71.84 85.7443 72.112C85.1363 72.384 84.4563 72.52 83.7043 72.52C82.6803 72.52 81.7683 72.312 80.9683 71.896C80.1683 71.464 79.5363 70.832 79.0723 70C78.6243 69.152 78.4003 68.128 78.4003 66.928C78.4003 65.744 78.6403 64.712 79.1203 63.832C79.6163 62.952 80.3123 62.272 81.2083 61.792C82.1203 61.312 83.1923 61.072 84.4243 61.072C86.7923 61.072 88.4483 61.808 89.3923 63.28C90.3363 64.752 90.8083 66.92 90.8083 69.784C90.8083 71.864 90.6163 73.584 90.2323 74.944C89.8643 76.288 89.2323 77.312 88.3363 78.016C87.4563 78.72 86.2483 79.072 84.7123 79.072C83.4963 79.072 82.4563 78.832 81.5923 78.352C80.7443 77.872 80.0883 77.24 79.6243 76.456C79.1763 75.672 78.9203 74.808 78.8563 73.864H82.6483ZM84.6403 69.28C85.3123 69.28 85.8483 69.08 86.2483 68.68C86.6483 68.264 86.8483 67.704 86.8483 67C86.8483 66.232 86.6403 65.64 86.2243 65.224C85.8083 64.808 85.2483 64.6 84.5443 64.6C83.8403 64.6 83.2803 64.816 82.8643 65.248C82.4643 65.664 82.2643 66.24 82.2643 66.976C82.2643 67.664 82.4643 68.224 82.8643 68.656C83.2803 69.072 83.8723 69.28 84.6403 69.28ZM105.574 72.448H101.398V76.72H97.51V72.448H93.334V68.776H97.51V64.48H101.398V68.776H105.574V72.448Z" fill="black"/>
<path d="M5.96 103.14C5.04 103.14 4.21333 102.98 3.48 102.66C2.76 102.327 2.19333 101.873 1.78 101.3C1.36667 100.713 1.15333 100.04 1.14 99.28H3.08C3.14667 99.9333 3.41333 100.487 3.88 100.94C4.36 101.38 5.05333 101.6 5.96 101.6C6.82667 101.6 7.50667 101.387 8 100.96C8.50667 100.52 8.76 99.96 8.76 99.28C8.76 98.7467 8.61333 98.3133 8.32 97.98C8.02667 97.6467 7.66 97.3933 7.22 97.22C6.78 97.0467 6.18667 96.86 5.44 96.66C4.52 96.42 3.78 96.18 3.22 95.94C2.67333 95.7 2.2 95.3267 1.8 94.82C1.41333 94.3 1.22 93.6067 1.22 92.74C1.22 91.98 1.41333 91.3067 1.8 90.72C2.18667 90.1333 2.72667 89.68 3.42 89.36C4.12667 89.04 4.93333 88.88 5.84 88.88C7.14667 88.88 8.21333 89.2067 9.04 89.86C9.88 90.5133 10.3533 91.38 10.46 92.46H8.46C8.39333 91.9267 8.11333 91.46 7.62 91.06C7.12667 90.6467 6.47333 90.44 5.66 90.44C4.9 90.44 4.28 90.64 3.8 91.04C3.32 91.4267 3.08 91.9733 3.08 92.68C3.08 93.1867 3.22 93.6 3.5 93.92C3.79333 94.24 4.14667 94.4867 4.56 94.66C4.98667 94.82 5.58 95.0067 6.34 95.22C7.26 95.4733 8 95.7267 8.56 95.98C9.12 96.22 9.6 96.6 10 97.12C10.4 97.6267 10.6 98.32 10.6 99.2C10.6 99.88 10.42 100.52 10.06 101.12C9.7 101.72 9.16667 102.207 8.46 102.58C7.75333 102.953 6.92 103.14 5.96 103.14ZM22.9983 92.04V103H21.1783V101.38C20.8316 101.94 20.3449 102.38 19.7183 102.7C19.1049 103.007 18.4249 103.16 17.6783 103.16C16.8249 103.16 16.0583 102.987 15.3783 102.64C14.6983 102.28 14.1583 101.747 13.7583 101.04C13.3716 100.333 13.1783 99.4733 13.1783 98.46V92.04H14.9783V98.22C14.9783 99.3 15.2516 100.133 15.7983 100.72C16.3449 101.293 17.0916 101.58 18.0383 101.58C19.0116 101.58 19.7783 101.28 20.3383 100.68C20.8983 100.08 21.1783 99.2067 21.1783 98.06V92.04H22.9983ZM25.3913 97.5C25.3913 96.3667 25.6179 95.38 26.0713 94.54C26.5246 93.6867 27.1513 93.0267 27.9513 92.56C28.7646 92.0933 29.6913 91.86 30.7313 91.86C32.0779 91.86 33.1846 92.1867 34.0513 92.84C34.9313 93.4933 35.5113 94.4 35.7913 95.56H33.8313C33.6446 94.8933 33.2779 94.3667 32.7313 93.98C32.1979 93.5933 31.5313 93.4 30.7313 93.4C29.6913 93.4 28.8513 93.76 28.2113 94.48C27.5713 95.1867 27.2513 96.1933 27.2513 97.5C27.2513 98.82 27.5713 99.84 28.2113 100.56C28.8513 101.28 29.6913 101.64 30.7313 101.64C31.5313 101.64 32.1979 101.453 32.7313 101.08C33.2646 100.707 33.6313 100.173 33.8313 99.48H35.7913C35.4979 100.6 34.9113 101.5 34.0313 102.18C33.1513 102.847 32.0513 103.18 30.7313 103.18C29.6913 103.18 28.7646 102.947 27.9513 102.48C27.1513 102.013 26.5246 101.353 26.0713 100.5C25.6179 99.6467 25.3913 98.6467 25.3913 97.5ZM37.5397 97.5C37.5397 96.3667 37.7664 95.38 38.2197 94.54C38.673 93.6867 39.2997 93.0267 40.0997 92.56C40.913 92.0933 41.8397 91.86 42.8797 91.86C44.2264 91.86 45.333 92.1867 46.1997 92.84C47.0797 93.4933 47.6597 94.4 47.9397 95.56H45.9797C45.793 94.8933 45.4264 94.3667 44.8797 93.98C44.3464 93.5933 43.6797 93.4 42.8797 93.4C41.8397 93.4 40.9997 93.76 40.3597 94.48C39.7197 95.1867 39.3997 96.1933 39.3997 97.5C39.3997 98.82 39.7197 99.84 40.3597 100.56C40.9997 101.28 41.8397 101.64 42.8797 101.64C43.6797 101.64 44.3464 101.453 44.8797 101.08C45.413 100.707 45.7797 100.173 45.9797 99.48H47.9397C47.6464 100.6 47.0597 101.5 46.1797 102.18C45.2997 102.847 44.1997 103.18 42.8797 103.18C41.8397 103.18 40.913 102.947 40.0997 102.48C39.2997 102.013 38.673 101.353 38.2197 100.5C37.7664 99.6467 37.5397 98.6467 37.5397 97.5ZM60.3681 97.1C60.3681 97.4467 60.3481 97.8133 60.3081 98.2H51.5481C51.6148 99.28 51.9815 100.127 52.6481 100.74C53.3281 101.34 54.1481 101.64 55.1081 101.64C55.8948 101.64 56.5481 101.46 57.0681 101.1C57.6015 100.727 57.9748 100.233 58.1881 99.62H60.1481C59.8548 100.673 59.2681 101.533 58.3881 102.2C57.5081 102.853 56.4148 103.18 55.1081 103.18C54.0681 103.18 53.1348 102.947 52.3081 102.48C51.4948 102.013 50.8548 101.353 50.3881 100.5C49.9215 99.6333 49.6881 98.6333 49.6881 97.5C49.6881 96.3667 49.9148 95.3733 50.3681 94.52C50.8215 93.6667 51.4548 93.0133 52.2681 92.56C53.0948 92.0933 54.0415 91.86 55.1081 91.86C56.1481 91.86 57.0681 92.0867 57.8681 92.54C58.6681 92.9933 59.2815 93.62 59.7081 94.42C60.1481 95.2067 60.3681 96.1 60.3681 97.1ZM58.4881 96.72C58.4881 96.0267 58.3348 95.4333 58.0281 94.94C57.7215 94.4333 57.3015 94.0533 56.7681 93.8C56.2481 93.5333 55.6681 93.4 55.0281 93.4C54.1081 93.4 53.3215 93.6933 52.6681 94.28C52.0281 94.8667 51.6615 95.68 51.5681 96.72H58.4881ZM66.6505 103.18C65.8105 103.18 65.0571 103.04 64.3905 102.76C63.7238 102.467 63.1971 102.067 62.8105 101.56C62.4238 101.04 62.2105 100.447 62.1705 99.78H64.0505C64.1038 100.327 64.3571 100.773 64.8105 101.12C65.2771 101.467 65.8838 101.64 66.6305 101.64C67.3238 101.64 67.8705 101.487 68.2705 101.18C68.6705 100.873 68.8705 100.487 68.8705 100.02C68.8705 99.54 68.6571 99.1867 68.2305 98.96C67.8038 98.72 67.1438 98.4867 66.2505 98.26C65.4371 98.0467 64.7705 97.8333 64.2505 97.62C63.7438 97.3933 63.3038 97.0667 62.9305 96.64C62.5705 96.2 62.3905 95.6267 62.3905 94.92C62.3905 94.36 62.5571 93.8467 62.8905 93.38C63.2238 92.9133 63.6971 92.5467 64.3105 92.28C64.9238 92 65.6238 91.86 66.4105 91.86C67.6238 91.86 68.6038 92.1667 69.3505 92.78C70.0971 93.3933 70.4971 94.2333 70.5505 95.3H68.7305C68.6905 94.7267 68.4571 94.2667 68.0305 93.92C67.6171 93.5733 67.0571 93.4 66.3505 93.4C65.6971 93.4 65.1771 93.54 64.7905 93.82C64.4038 94.1 64.2105 94.4667 64.2105 94.92C64.2105 95.28 64.3238 95.58 64.5505 95.82C64.7905 96.0467 65.0838 96.2333 65.4305 96.38C65.7905 96.5133 66.2838 96.6667 66.9105 96.84C67.6971 97.0533 68.3371 97.2667 68.8305 97.48C69.3238 97.68 69.7438 97.9867 70.0905 98.4C70.4505 98.8133 70.6371 99.3533 70.6505 100.02C70.6505 100.62 70.4838 101.16 70.1505 101.64C69.8171 102.12 69.3438 102.5 68.7305 102.78C68.1305 103.047 67.4371 103.18 66.6505 103.18ZM77.0997 103.18C76.2597 103.18 75.5064 103.04 74.8397 102.76C74.173 102.467 73.6464 102.067 73.2597 101.56C72.873 101.04 72.6597 100.447 72.6197 99.78H74.4997C74.553 100.327 74.8064 100.773 75.2597 101.12C75.7264 101.467 76.333 101.64 77.0797 101.64C77.773 101.64 78.3197 101.487 78.7197 101.18C79.1197 100.873 79.3197 100.487 79.3197 100.02C79.3197 99.54 79.1064 99.1867 78.6797 98.96C78.253 98.72 77.593 98.4867 76.6997 98.26C75.8864 98.0467 75.2197 97.8333 74.6997 97.62C74.193 97.3933 73.753 97.0667 73.3797 96.64C73.0197 96.2 72.8397 95.6267 72.8397 94.92C72.8397 94.36 73.0064 93.8467 73.3397 93.38C73.673 92.9133 74.1464 92.5467 74.7597 92.28C75.373 92 76.073 91.86 76.8597 91.86C78.073 91.86 79.053 92.1667 79.7997 92.78C80.5464 93.3933 80.9464 94.2333 80.9997 95.3H79.1797C79.1397 94.7267 78.9064 94.2667 78.4797 93.92C78.0664 93.5733 77.5064 93.4 76.7997 93.4C76.1464 93.4 75.6264 93.54 75.2397 93.82C74.853 94.1 74.6597 94.4667 74.6597 94.92C74.6597 95.28 74.773 95.58 74.9997 95.82C75.2397 96.0467 75.533 96.2333 75.8797 96.38C76.2397 96.5133 76.733 96.6667 77.3597 96.84C78.1464 97.0533 78.7864 97.2667 79.2797 97.48C79.773 97.68 80.193 97.9867 80.5397 98.4C80.8997 98.8133 81.0864 99.3533 81.0997 100.02C81.0997 100.62 80.933 101.16 80.5997 101.64C80.2664 102.12 79.793 102.5 79.1797 102.78C78.5797 103.047 77.8864 103.18 77.0997 103.18ZM92.8809 103.18C92.0409 103.18 91.2876 103.04 90.6209 102.76C89.9543 102.467 89.4276 102.067 89.0409 101.56C88.6543 101.04 88.4409 100.447 88.4009 99.78H90.2809C90.3343 100.327 90.5876 100.773 91.0409 101.12C91.5076 101.467 92.1143 101.64 92.8609 101.64C93.5543 101.64 94.1009 101.487 94.5009 101.18C94.9009 100.873 95.1009 100.487 95.1009 100.02C95.1009 99.54 94.8876 99.1867 94.4609 98.96C94.0343 98.72 93.3743 98.4867 92.4809 98.26C91.6676 98.0467 91.0009 97.8333 90.4809 97.62C89.9743 97.3933 89.5343 97.0667 89.1609 96.64C88.8009 96.2 88.6209 95.6267 88.6209 94.92C88.6209 94.36 88.7876 93.8467 89.1209 93.38C89.4543 92.9133 89.9276 92.5467 90.5409 92.28C91.1543 92 91.8543 91.86 92.6409 91.86C93.8543 91.86 94.8343 92.1667 95.5809 92.78C96.3276 93.3933 96.7276 94.2333 96.7809 95.3H94.9609C94.9209 94.7267 94.6876 94.2667 94.2609 93.92C93.8476 93.5733 93.2876 93.4 92.5809 93.4C91.9276 93.4 91.4076 93.54 91.0209 93.82C90.6343 94.1 90.4409 94.4667 90.4409 94.92C90.4409 95.28 90.5543 95.58 90.7809 95.82C91.0209 96.0467 91.3143 96.2333 91.6609 96.38C92.0209 96.5133 92.5143 96.6667 93.1409 96.84C93.9276 97.0533 94.5676 97.2667 95.0609 97.48C95.5543 97.68 95.9743 97.9867 96.3209 98.4C96.6809 98.8133 96.8676 99.3533 96.8809 100.02C96.8809 100.62 96.7143 101.16 96.3809 101.64C96.0476 102.12 95.5743 102.5 94.9609 102.78C94.3609 103.047 93.6676 103.18 92.8809 103.18ZM101.67 93.54V100C101.67 100.533 101.783 100.913 102.01 101.14C102.237 101.353 102.63 101.46 103.19 101.46H104.53V103H102.89C101.877 103 101.117 102.767 100.61 102.3C100.103 101.833 99.8502 101.067 99.8502 100V93.54H98.4302V92.04H99.8502V89.28H101.67V92.04H104.53V93.54H101.67ZM111.515 103.18C110.489 103.18 109.555 102.947 108.715 102.48C107.889 102.013 107.235 101.353 106.755 100.5C106.289 99.6333 106.055 98.6333 106.055 97.5C106.055 96.38 106.295 95.3933 106.775 94.54C107.269 93.6733 107.935 93.0133 108.775 92.56C109.615 92.0933 110.555 91.86 111.595 91.86C112.635 91.86 113.575 92.0933 114.415 92.56C115.255 93.0133 115.915 93.6667 116.395 94.52C116.889 95.3733 117.135 96.3667 117.135 97.5C117.135 98.6333 116.882 99.6333 116.375 100.5C115.882 101.353 115.209 102.013 114.355 102.48C113.502 102.947 112.555 103.18 111.515 103.18ZM111.515 101.58C112.169 101.58 112.782 101.427 113.355 101.12C113.929 100.813 114.389 100.353 114.735 99.74C115.095 99.1267 115.275 98.38 115.275 97.5C115.275 96.62 115.102 95.8733 114.755 95.26C114.409 94.6467 113.955 94.1933 113.395 93.9C112.835 93.5933 112.229 93.44 111.575 93.44C110.909 93.44 110.295 93.5933 109.735 93.9C109.189 94.1933 108.749 94.6467 108.415 95.26C108.082 95.8733 107.915 96.62 107.915 97.5C107.915 98.3933 108.075 99.1467 108.395 99.76C108.729 100.373 109.169 100.833 109.715 101.14C110.262 101.433 110.862 101.58 111.515 101.58ZM121.348 93.82C121.668 93.1933 122.122 92.7067 122.708 92.36C123.308 92.0133 124.035 91.84 124.888 91.84V93.72H124.408C122.368 93.72 121.348 94.8267 121.348 97.04V103H119.528V92.04H121.348V93.82ZM127.929 90.26C127.583 90.26 127.289 90.14 127.049 89.9C126.809 89.66 126.689 89.3667 126.689 89.02C126.689 88.6733 126.809 88.38 127.049 88.14C127.289 87.9 127.583 87.78 127.929 87.78C128.263 87.78 128.543 87.9 128.769 88.14C129.009 88.38 129.129 88.6733 129.129 89.02C129.129 89.3667 129.009 89.66 128.769 89.9C128.543 90.14 128.263 90.26 127.929 90.26ZM128.809 92.04V103H126.989V92.04H128.809ZM141.911 97.1C141.911 97.4467 141.891 97.8133 141.851 98.2H133.091C133.158 99.28 133.524 100.127 134.191 100.74C134.871 101.34 135.691 101.64 136.651 101.64C137.438 101.64 138.091 101.46 138.611 101.1C139.144 100.727 139.518 100.233 139.731 99.62H141.691C141.398 100.673 140.811 101.533 139.931 102.2C139.051 102.853 137.958 103.18 136.651 103.18C135.611 103.18 134.678 102.947 133.851 102.48C133.038 102.013 132.398 101.353 131.931 100.5C131.464 99.6333 131.231 98.6333 131.231 97.5C131.231 96.3667 131.458 95.3733 131.911 94.52C132.364 93.6667 132.998 93.0133 133.811 92.56C134.638 92.0933 135.584 91.86 136.651 91.86C137.691 91.86 138.611 92.0867 139.411 92.54C140.211 92.9933 140.824 93.62 141.251 94.42C141.691 95.2067 141.911 96.1 141.911 97.1ZM140.031 96.72C140.031 96.0267 139.878 95.4333 139.571 94.94C139.264 94.4333 138.844 94.0533 138.311 93.8C137.791 93.5333 137.211 93.4 136.571 93.4C135.651 93.4 134.864 93.6933 134.211 94.28C133.571 94.8667 133.204 95.68 133.111 96.72H140.031ZM148.193 103.18C147.353 103.18 146.6 103.04 145.933 102.76C145.267 102.467 144.74 102.067 144.353 101.56C143.967 101.04 143.753 100.447 143.713 99.78H145.593C145.647 100.327 145.9 100.773 146.353 101.12C146.82 101.467 147.427 101.64 148.173 101.64C148.867 101.64 149.413 101.487 149.813 101.18C150.213 100.873 150.413 100.487 150.413 100.02C150.413 99.54 150.2 99.1867 149.773 98.96C149.347 98.72 148.687 98.4867 147.793 98.26C146.98 98.0467 146.313 97.8333 145.793 97.62C145.287 97.3933 144.847 97.0667 144.473 96.64C144.113 96.2 143.933 95.6267 143.933 94.92C143.933 94.36 144.1 93.8467 144.433 93.38C144.767 92.9133 145.24 92.5467 145.853 92.28C146.467 92 147.167 91.86 147.953 91.86C149.167 91.86 150.147 92.1667 150.893 92.78C151.64 93.3933 152.04 94.2333 152.093 95.3H150.273C150.233 94.7267 150 94.2667 149.573 93.92C149.16 93.5733 148.6 93.4 147.893 93.4C147.24 93.4 146.72 93.54 146.333 93.82C145.947 94.1 145.753 94.4667 145.753 94.92C145.753 95.28 145.867 95.58 146.093 95.82C146.333 96.0467 146.627 96.2333 146.973 96.38C147.333 96.5133 147.827 96.6667 148.453 96.84C149.24 97.0533 149.88 97.2667 150.373 97.48C150.867 97.68 151.287 97.9867 151.633 98.4C151.993 98.8133 152.18 99.3533 152.193 100.02C152.193 100.62 152.027 101.16 151.693 101.64C151.36 102.12 150.887 102.5 150.273 102.78C149.673 103.047 148.98 103.18 148.193 103.18Z" fill="black"/>
</svg>
