<svg width="96" height="105" viewBox="0 0 96 105" fill="none" xmlns="http://www.w3.org/2000/svg">
<g clip-path="url(#clip0_136_89)">
<path d="M58.8357 12.4688C58.6182 15.4872 56.3791 17.8125 53.9373 17.8125C51.4955 17.8125 49.2526 15.488 49.0388 12.4688C48.8162 9.32855 50.996 7.125 53.9373 7.125C56.8785 7.125 59.0584 9.3857 58.8357 12.4688Z" stroke="#D25400" stroke-width="3" stroke-linecap="round" stroke-linejoin="round"/>
<path d="M53.9373 22.5625C49.1004 22.5625 44.4491 24.965 43.2839 29.6437C43.1295 30.2627 43.5177 30.875 44.1537 30.875H63.7215C64.3576 30.875 64.7435 30.2627 64.5914 29.6437C63.4261 24.89 58.7748 22.5625 53.9373 22.5625Z" stroke="#D25400" stroke-width="3" stroke-miterlimit="10"/>
<path d="M43.8435 13.8002C43.6698 16.2109 41.8604 18.1094 39.9099 18.1094C37.9595 18.1094 36.147 16.2116 35.9763 13.8002C35.7989 11.2924 37.5602 9.5 39.9099 9.5C42.2597 9.5 44.0209 11.3384 43.8435 13.8002Z" stroke="#D25400" stroke-width="3" stroke-linecap="round" stroke-linejoin="round"/>
<path d="M44.2888 22.7109C42.9492 22.0971 41.4737 21.8611 39.9099 21.8611C36.0505 21.8611 32.3322 23.7796 31.4007 27.5166C31.2783 28.0109 31.5885 28.5 32.0962 28.5H40.4294" stroke="#D25400" stroke-width="3" stroke-miterlimit="10" stroke-linecap="round"/>
</g>
<path d="M30.4158 62.056H22.9278V65.368C23.2478 65.016 23.6958 64.728 24.2718 64.504C24.8478 64.28 25.4718 64.168 26.1438 64.168C27.3438 64.168 28.3358 64.44 29.1198 64.984C29.9198 65.528 30.5038 66.232 30.8718 67.096C31.2398 67.96 31.4238 68.896 31.4238 69.904C31.4238 71.776 30.8958 73.264 29.8398 74.368C28.7838 75.456 27.2958 76 25.3758 76C24.0958 76 22.9838 75.784 22.0398 75.352C21.0958 74.904 20.3678 74.288 19.8558 73.504C19.3438 72.72 19.0638 71.816 19.0158 70.792H23.0238C23.1198 71.288 23.3518 71.704 23.7198 72.04C24.0878 72.36 24.5918 72.52 25.2318 72.52C25.9838 72.52 26.5438 72.28 26.9118 71.8C27.2798 71.32 27.4638 70.68 27.4638 69.88C27.4638 69.096 27.2718 68.496 26.8878 68.08C26.5038 67.664 25.9438 67.456 25.2078 67.456C24.6638 67.456 24.2158 67.592 23.8638 67.864C23.5118 68.12 23.2798 68.464 23.1678 68.896H19.2078V58.456H30.4158V62.056ZM33.6891 67C33.6891 64.248 34.2171 62.08 35.2731 60.496C36.3451 58.912 38.0651 58.12 40.4331 58.12C42.8011 58.12 44.5131 58.912 45.5691 60.496C46.6411 62.08 47.1771 64.248 47.1771 67C47.1771 69.784 46.6411 71.968 45.5691 73.552C44.5131 75.136 42.8011 75.928 40.4331 75.928C38.0651 75.928 36.3451 75.136 35.2731 73.552C34.2171 71.968 33.6891 69.784 33.6891 67ZM43.1451 67C43.1451 65.384 42.9691 64.144 42.6171 63.28C42.2651 62.4 41.5371 61.96 40.4331 61.96C39.3291 61.96 38.6011 62.4 38.2491 63.28C37.8971 64.144 37.7211 65.384 37.7211 67C37.7211 68.088 37.7851 68.992 37.9131 69.712C38.0411 70.416 38.2971 70.992 38.6811 71.44C39.0811 71.872 39.6651 72.088 40.4331 72.088C41.2011 72.088 41.7771 71.872 42.1611 71.44C42.5611 70.992 42.8251 70.416 42.9531 69.712C43.0811 68.992 43.1451 68.088 43.1451 67ZM49.3454 67C49.3454 64.248 49.8734 62.08 50.9294 60.496C52.0014 58.912 53.7214 58.12 56.0894 58.12C58.4574 58.12 60.1694 58.912 61.2254 60.496C62.2974 62.08 62.8334 64.248 62.8334 67C62.8334 69.784 62.2974 71.968 61.2254 73.552C60.1694 75.136 58.4574 75.928 56.0894 75.928C53.7214 75.928 52.0014 75.136 50.9294 73.552C49.8734 71.968 49.3454 69.784 49.3454 67ZM58.8014 67C58.8014 65.384 58.6254 64.144 58.2734 63.28C57.9214 62.4 57.1934 61.96 56.0894 61.96C54.9854 61.96 54.2574 62.4 53.9054 63.28C53.5534 64.144 53.3774 65.384 53.3774 67C53.3774 68.088 53.4414 68.992 53.5694 69.712C53.6974 70.416 53.9534 70.992 54.3374 71.44C54.7374 71.872 55.3214 72.088 56.0894 72.088C56.8574 72.088 57.4334 71.872 57.8174 71.44C58.2174 70.992 58.4814 70.416 58.6094 69.712C58.7374 68.992 58.8014 68.088 58.8014 67ZM77.5776 69.448H73.4016V73.72H69.5136V69.448H65.3376V65.776H69.5136V61.48H73.4016V65.776H77.5776V69.448Z" fill="black"/>
<path d="M9.45976 100.14C8.53976 100.14 7.71309 99.98 6.97976 99.66C6.25976 99.3267 5.69309 98.8733 5.27976 98.3C4.86642 97.7133 4.65309 97.04 4.63976 96.28H6.57976C6.64642 96.9333 6.91309 97.4867 7.37976 97.94C7.85976 98.38 8.55309 98.6 9.45976 98.6C10.3264 98.6 11.0064 98.3867 11.4998 97.96C12.0064 97.52 12.2598 96.96 12.2598 96.28C12.2598 95.7467 12.1131 95.3133 11.8198 94.98C11.5264 94.6467 11.1598 94.3933 10.7198 94.22C10.2798 94.0467 9.68642 93.86 8.93976 93.66C8.01976 93.42 7.27976 93.18 6.71976 92.94C6.17309 92.7 5.69976 92.3267 5.29976 91.82C4.91309 91.3 4.71976 90.6067 4.71976 89.74C4.71976 88.98 4.91309 88.3067 5.29976 87.72C5.68642 87.1333 6.22642 86.68 6.91976 86.36C7.62642 86.04 8.43309 85.88 9.33976 85.88C10.6464 85.88 11.7131 86.2067 12.5398 86.86C13.3798 87.5133 13.8531 88.38 13.9598 89.46H11.9598C11.8931 88.9267 11.6131 88.46 11.1198 88.06C10.6264 87.6467 9.97309 87.44 9.15976 87.44C8.39976 87.44 7.77976 87.64 7.29976 88.04C6.81976 88.4267 6.57976 88.9733 6.57976 89.68C6.57976 90.1867 6.71976 90.6 6.99976 90.92C7.29309 91.24 7.64642 91.4867 8.05976 91.66C8.48642 91.82 9.07976 92.0067 9.83976 92.22C10.7598 92.4733 11.4998 92.7267 12.0598 92.98C12.6198 93.22 13.0998 93.6 13.4998 94.12C13.8998 94.6267 14.0998 95.32 14.0998 96.2C14.0998 96.88 13.9198 97.52 13.5598 98.12C13.1998 98.72 12.6664 99.2067 11.9598 99.58C11.2531 99.9533 10.4198 100.14 9.45976 100.14ZM18.998 90.54V97C18.998 97.5333 19.1114 97.9133 19.338 98.14C19.5647 98.3533 19.958 98.46 20.518 98.46H21.858V100H20.218C19.2047 100 18.4447 99.7667 17.938 99.3C17.4314 98.8333 17.178 98.0667 17.178 97V90.54H15.758V89.04H17.178V86.28H18.998V89.04H21.858V90.54H18.998ZM33.7832 89.04V100H31.9632V98.38C31.6165 98.94 31.1299 99.38 30.5032 99.7C29.8899 100.007 29.2099 100.16 28.4632 100.16C27.6099 100.16 26.8432 99.9867 26.1632 99.64C25.4832 99.28 24.9432 98.7467 24.5432 98.04C24.1565 97.3333 23.9632 96.4733 23.9632 95.46V89.04H25.7632V95.22C25.7632 96.3 26.0365 97.1333 26.5832 97.72C27.1299 98.2933 27.8765 98.58 28.8232 98.58C29.7965 98.58 30.5632 98.28 31.1232 97.68C31.6832 97.08 31.9632 96.2067 31.9632 95.06V89.04H33.7832ZM36.1762 94.48C36.1762 93.36 36.4028 92.38 36.8562 91.54C37.3095 90.6867 37.9295 90.0267 38.7162 89.56C39.5162 89.0933 40.4095 88.86 41.3962 88.86C42.2495 88.86 43.0428 89.06 43.7762 89.46C44.5095 89.8467 45.0695 90.36 45.4562 91V85.2H47.2962V100H45.4562V97.94C45.0962 98.5933 44.5628 99.1333 43.8562 99.56C43.1495 99.9733 42.3228 100.18 41.3762 100.18C40.4028 100.18 39.5162 99.94 38.7162 99.46C37.9295 98.98 37.3095 98.3067 36.8562 97.44C36.4028 96.5733 36.1762 95.5867 36.1762 94.48ZM45.4562 94.5C45.4562 93.6733 45.2895 92.9533 44.9562 92.34C44.6228 91.7267 44.1695 91.26 43.5962 90.94C43.0362 90.6067 42.4162 90.44 41.7362 90.44C41.0562 90.44 40.4362 90.6 39.8762 90.92C39.3162 91.24 38.8695 91.7067 38.5362 92.32C38.2028 92.9333 38.0362 93.6533 38.0362 94.48C38.0362 95.32 38.2028 96.0533 38.5362 96.68C38.8695 97.2933 39.3162 97.7667 39.8762 98.1C40.4362 98.42 41.0562 98.58 41.7362 98.58C42.4162 98.58 43.0362 98.42 43.5962 98.1C44.1695 97.7667 44.6228 97.2933 44.9562 96.68C45.2895 96.0533 45.4562 95.3267 45.4562 94.5ZM60.3718 94.1C60.3718 94.4467 60.3518 94.8133 60.3118 95.2H51.5518C51.6185 96.28 51.9851 97.1267 52.6518 97.74C53.3318 98.34 54.1518 98.64 55.1118 98.64C55.8985 98.64 56.5518 98.46 57.0718 98.1C57.6051 97.7267 57.9785 97.2333 58.1918 96.62H60.1518C59.8585 97.6733 59.2718 98.5333 58.3918 99.2C57.5118 99.8533 56.4185 100.18 55.1118 100.18C54.0718 100.18 53.1385 99.9467 52.3118 99.48C51.4985 99.0133 50.8585 98.3533 50.3918 97.5C49.9251 96.6333 49.6918 95.6333 49.6918 94.5C49.6918 93.3667 49.9185 92.3733 50.3718 91.52C50.8251 90.6667 51.4585 90.0133 52.2718 89.56C53.0985 89.0933 54.0451 88.86 55.1118 88.86C56.1518 88.86 57.0718 89.0867 57.8718 89.54C58.6718 89.9933 59.2851 90.62 59.7118 91.42C60.1518 92.2067 60.3718 93.1 60.3718 94.1ZM58.4918 93.72C58.4918 93.0267 58.3385 92.4333 58.0318 91.94C57.7251 91.4333 57.3051 91.0533 56.7718 90.8C56.2518 90.5333 55.6718 90.4 55.0318 90.4C54.1118 90.4 53.3251 90.6933 52.6718 91.28C52.0318 91.8667 51.6651 92.68 51.5718 93.72H58.4918ZM68.1141 88.84C69.4475 88.84 70.5275 89.2467 71.3541 90.06C72.1808 90.86 72.5941 92.02 72.5941 93.54V100H70.7941V93.8C70.7941 92.7067 70.5208 91.8733 69.9741 91.3C69.4275 90.7133 68.6808 90.42 67.7341 90.42C66.7741 90.42 66.0075 90.72 65.4341 91.32C64.8741 91.92 64.5941 92.7933 64.5941 93.94V100H62.7741V89.04H64.5941V90.6C64.9541 90.04 65.4408 89.6067 66.0541 89.3C66.6808 88.9933 67.3675 88.84 68.1141 88.84ZM77.7871 90.54V97C77.7871 97.5333 77.9004 97.9133 78.1271 98.14C78.3538 98.3533 78.7471 98.46 79.3071 98.46H80.6471V100H79.0071C77.9938 100 77.2338 99.7667 76.7271 99.3C76.2204 98.8333 75.9671 98.0667 75.9671 97V90.54H74.5471V89.04H75.9671V86.28H77.7871V89.04H80.6471V90.54H77.7871ZM86.7323 100.18C85.8923 100.18 85.1389 100.04 84.4723 99.76C83.8056 99.4667 83.2789 99.0667 82.8923 98.56C82.5056 98.04 82.2923 97.4467 82.2523 96.78H84.1323C84.1856 97.3267 84.4389 97.7733 84.8923 98.12C85.3589 98.4667 85.9656 98.64 86.7123 98.64C87.4056 98.64 87.9523 98.4867 88.3523 98.18C88.7523 97.8733 88.9523 97.4867 88.9523 97.02C88.9523 96.54 88.7389 96.1867 88.3123 95.96C87.8856 95.72 87.2256 95.4867 86.3323 95.26C85.5189 95.0467 84.8523 94.8333 84.3323 94.62C83.8256 94.3933 83.3856 94.0667 83.0123 93.64C82.6523 93.2 82.4723 92.6267 82.4723 91.92C82.4723 91.36 82.6389 90.8467 82.9723 90.38C83.3056 89.9133 83.7789 89.5467 84.3923 89.28C85.0056 89 85.7056 88.86 86.4923 88.86C87.7056 88.86 88.6856 89.1667 89.4323 89.78C90.1789 90.3933 90.5789 91.2333 90.6323 92.3H88.8123C88.7723 91.7267 88.5389 91.2667 88.1123 90.92C87.6989 90.5733 87.1389 90.4 86.4323 90.4C85.7789 90.4 85.2589 90.54 84.8723 90.82C84.4856 91.1 84.2923 91.4667 84.2923 91.92C84.2923 92.28 84.4056 92.58 84.6323 92.82C84.8723 93.0467 85.1656 93.2333 85.5123 93.38C85.8723 93.5133 86.3656 93.6667 86.9923 93.84C87.7789 94.0533 88.4189 94.2667 88.9123 94.48C89.4056 94.68 89.8256 94.9867 90.1723 95.4C90.5323 95.8133 90.7189 96.3533 90.7323 97.02C90.7323 97.62 90.5656 98.16 90.2323 98.64C89.8989 99.12 89.4256 99.5 88.8123 99.78C88.2123 100.047 87.5189 100.18 86.7323 100.18Z" fill="black"/>
<defs>
<clipPath id="clip0_136_89">
<rect width="38" height="38" fill="white" transform="translate(28.9998)"/>
</clipPath>
</defs>
</svg>
