<svg width="96" height="104" viewBox="0 0 96 104" fill="none" xmlns="http://www.w3.org/2000/svg">
<g clip-path="url(#clip0_136_104)">
<path d="M41.3493 26.125C41.2074 26.125 41.0655 26.151 40.9301 26.2059C40.1606 26.5184 39.3513 26.7188 38.4993 26.7188C37.6472 26.7188 36.838 26.5184 36.0679 26.2059C35.9325 26.151 35.7912 26.125 35.6493 26.125C31.9645 26.125 28.9797 29.8716 28.9993 34.4835C29.0076 36.4325 30.2895 38 31.8493 38H45.1493C46.7091 38 47.991 36.4325 47.9993 34.4835C48.0189 29.8716 45.0341 26.125 41.3493 26.125ZM38.4993 23.75C41.6473 23.75 44.1993 20.5601 44.1993 16.625C44.1993 12.6899 41.6473 9.5 38.4993 9.5C35.3512 9.5 32.7993 12.6899 32.7993 16.625C32.7993 20.5601 35.3512 23.75 38.4993 23.75ZM64.1493 0H41.3493C39.7776 0 38.4993 1.65137 38.4993 3.68051V7.125C39.8898 7.125 41.1771 7.6282 42.2993 8.44609V4.75H63.1993V26.125H59.3993V21.375H51.7993V26.125H47.2725C48.4066 27.3637 49.239 28.9995 49.6291 30.875H64.1493C65.7209 30.875 66.9993 29.2236 66.9993 27.1945V3.68051C66.9993 1.65137 65.7209 0 64.1493 0Z" fill="#D25400"/>
</g>
<path d="M21.9353 71.712C22.4793 71.28 22.7273 71.08 22.6793 71.112C24.2473 69.816 25.4793 68.752 26.3753 67.92C27.2873 67.088 28.0553 66.216 28.6793 65.304C29.3033 64.392 29.6153 63.504 29.6153 62.64C29.6153 61.984 29.4633 61.472 29.1593 61.104C28.8553 60.736 28.3993 60.552 27.7913 60.552C27.1833 60.552 26.7033 60.784 26.3513 61.248C26.0153 61.696 25.8473 62.336 25.8473 63.168H21.8873C21.9193 61.808 22.2073 60.672 22.7513 59.76C23.3113 58.848 24.0393 58.176 24.9353 57.744C25.8473 57.312 26.8553 57.096 27.9593 57.096C29.8633 57.096 31.2953 57.584 32.2553 58.56C33.2313 59.536 33.7193 60.808 33.7193 62.376C33.7193 64.088 33.1353 65.68 31.9673 67.152C30.7993 68.608 29.3113 70.032 27.5033 71.424H33.9833V74.76H21.9353V71.712ZM35.3582 61.296V57.48H42.0062V75H37.7342V61.296H35.3582ZM44.8136 66C44.8136 63.248 45.3416 61.08 46.3976 59.496C47.4696 57.912 49.1896 57.12 51.5576 57.12C53.9256 57.12 55.6376 57.912 56.6936 59.496C57.7656 61.08 58.3016 63.248 58.3016 66C58.3016 68.784 57.7656 70.968 56.6936 72.552C55.6376 74.136 53.9256 74.928 51.5576 74.928C49.1896 74.928 47.4696 74.136 46.3976 72.552C45.3416 70.968 44.8136 68.784 44.8136 66ZM54.2696 66C54.2696 64.384 54.0936 63.144 53.7416 62.28C53.3896 61.4 52.6616 60.96 51.5576 60.96C50.4536 60.96 49.7256 61.4 49.3736 62.28C49.0216 63.144 48.8456 64.384 48.8456 66C48.8456 67.088 48.9096 67.992 49.0376 68.712C49.1656 69.416 49.4216 69.992 49.8056 70.44C50.2056 70.872 50.7896 71.088 51.5576 71.088C52.3256 71.088 52.9016 70.872 53.2856 70.44C53.6856 69.992 53.9496 69.416 54.0776 68.712C54.2056 67.992 54.2696 67.088 54.2696 66ZM73.0459 68.448H68.8699V72.72H64.9819V68.448H60.8059V64.776H64.9819V60.48H68.8699V64.776H73.0459V68.448Z" fill="black"/>
<path d="M12.1193 85.06V86.54H8.31927V99H6.49927V86.54H2.67927V85.06H12.1193ZM24.3596 93.1C24.3596 93.4467 24.3396 93.8133 24.2996 94.2H15.5396C15.6062 95.28 15.9729 96.1267 16.6396 96.74C17.3196 97.34 18.1396 97.64 19.0996 97.64C19.8862 97.64 20.5396 97.46 21.0596 97.1C21.5929 96.7267 21.9662 96.2333 22.1796 95.62H24.1396C23.8462 96.6733 23.2596 97.5333 22.3796 98.2C21.4996 98.8533 20.4062 99.18 19.0996 99.18C18.0596 99.18 17.1262 98.9467 16.2996 98.48C15.4862 98.0133 14.8462 97.3533 14.3796 96.5C13.9129 95.6333 13.6796 94.6333 13.6796 93.5C13.6796 92.3667 13.9062 91.3733 14.3596 90.52C14.8129 89.6667 15.4462 89.0133 16.2596 88.56C17.0862 88.0933 18.0329 87.86 19.0996 87.86C20.1396 87.86 21.0596 88.0867 21.8596 88.54C22.6596 88.9933 23.2729 89.62 23.6996 90.42C24.1396 91.2067 24.3596 92.1 24.3596 93.1ZM22.4796 92.72C22.4796 92.0267 22.3262 91.4333 22.0196 90.94C21.7129 90.4333 21.2929 90.0533 20.7596 89.8C20.2396 89.5333 19.6596 89.4 19.0196 89.4C18.0996 89.4 17.3129 89.6933 16.6596 90.28C16.0196 90.8667 15.6529 91.68 15.5596 92.72H22.4796ZM26.0819 93.48C26.0819 92.36 26.3086 91.38 26.7619 90.54C27.2153 89.6867 27.8353 89.0267 28.6219 88.56C29.4219 88.0933 30.3086 87.86 31.2819 87.86C32.2419 87.86 33.0753 88.0667 33.7819 88.48C34.4886 88.8933 35.0153 89.4133 35.3619 90.04V88.04H37.2019V99H35.3619V96.96C35.0019 97.6 34.4619 98.1333 33.7419 98.56C33.0353 98.9733 32.2086 99.18 31.2619 99.18C30.2886 99.18 29.4086 98.94 28.6219 98.46C27.8353 97.98 27.2153 97.3067 26.7619 96.44C26.3086 95.5733 26.0819 94.5867 26.0819 93.48ZM35.3619 93.5C35.3619 92.6733 35.1953 91.9533 34.8619 91.34C34.5286 90.7267 34.0753 90.26 33.5019 89.94C32.9419 89.6067 32.3219 89.44 31.6419 89.44C30.9619 89.44 30.3419 89.6 29.7819 89.92C29.2219 90.24 28.7753 90.7067 28.4419 91.32C28.1086 91.9333 27.9419 92.6533 27.9419 93.48C27.9419 94.32 28.1086 95.0533 28.4419 95.68C28.7753 96.2933 29.2219 96.7667 29.7819 97.1C30.3419 97.42 30.9619 97.58 31.6419 97.58C32.3219 97.58 32.9419 97.42 33.5019 97.1C34.0753 96.7667 34.5286 96.2933 34.8619 95.68C35.1953 95.0533 35.3619 94.3267 35.3619 93.5ZM39.5975 93.5C39.5975 92.3667 39.8242 91.38 40.2775 90.54C40.7309 89.6867 41.3575 89.0267 42.1575 88.56C42.9709 88.0933 43.8975 87.86 44.9375 87.86C46.2842 87.86 47.3909 88.1867 48.2575 88.84C49.1375 89.4933 49.7175 90.4 49.9975 91.56H48.0375C47.8509 90.8933 47.4842 90.3667 46.9375 89.98C46.4042 89.5933 45.7375 89.4 44.9375 89.4C43.8975 89.4 43.0575 89.76 42.4175 90.48C41.7775 91.1867 41.4575 92.1933 41.4575 93.5C41.4575 94.82 41.7775 95.84 42.4175 96.56C43.0575 97.28 43.8975 97.64 44.9375 97.64C45.7375 97.64 46.4042 97.4533 46.9375 97.08C47.4709 96.7067 47.8375 96.1733 48.0375 95.48H49.9975C49.7042 96.6 49.1175 97.5 48.2375 98.18C47.3575 98.8467 46.2575 99.18 44.9375 99.18C43.8975 99.18 42.9709 98.9467 42.1575 98.48C41.3575 98.0133 40.7309 97.3533 40.2775 96.5C39.8242 95.6467 39.5975 94.6467 39.5975 93.5ZM57.866 87.84C58.6927 87.84 59.4393 88.02 60.106 88.38C60.7727 88.7267 61.2927 89.2533 61.666 89.96C62.0527 90.6667 62.246 91.5267 62.246 92.54V99H60.446V92.8C60.446 91.7067 60.1727 90.8733 59.626 90.3C59.0793 89.7133 58.3327 89.42 57.386 89.42C56.426 89.42 55.6593 89.72 55.086 90.32C54.526 90.92 54.246 91.7933 54.246 92.94V99H52.426V84.2H54.246V89.6C54.606 89.04 55.0993 88.6067 55.726 88.3C56.366 87.9933 57.0793 87.84 57.866 87.84ZM75.219 93.1C75.219 93.4467 75.199 93.8133 75.159 94.2H66.399C66.4656 95.28 66.8323 96.1267 67.499 96.74C68.179 97.34 68.999 97.64 69.959 97.64C70.7456 97.64 71.399 97.46 71.919 97.1C72.4523 96.7267 72.8256 96.2333 73.039 95.62H74.999C74.7056 96.6733 74.119 97.5333 73.239 98.2C72.359 98.8533 71.2656 99.18 69.959 99.18C68.919 99.18 67.9856 98.9467 67.159 98.48C66.3456 98.0133 65.7056 97.3533 65.239 96.5C64.7723 95.6333 64.539 94.6333 64.539 93.5C64.539 92.3667 64.7656 91.3733 65.219 90.52C65.6723 89.6667 66.3056 89.0133 67.119 88.56C67.9456 88.0933 68.8923 87.86 69.959 87.86C70.999 87.86 71.919 88.0867 72.719 88.54C73.519 88.9933 74.1323 89.62 74.559 90.42C74.999 91.2067 75.219 92.1 75.219 93.1ZM73.339 92.72C73.339 92.0267 73.1856 91.4333 72.879 90.94C72.5723 90.4333 72.1523 90.0533 71.619 89.8C71.099 89.5333 70.519 89.4 69.879 89.4C68.959 89.4 68.1723 89.6933 67.519 90.28C66.879 90.8667 66.5123 91.68 66.419 92.72H73.339ZM79.4413 89.82C79.7613 89.1933 80.2146 88.7067 80.8013 88.36C81.4013 88.0133 82.128 87.84 82.9813 87.84V89.72H82.5013C80.4613 89.72 79.4413 90.8267 79.4413 93.04V99H77.6213V88.04H79.4413V89.82ZM88.9622 99.18C88.1222 99.18 87.3689 99.04 86.7022 98.76C86.0356 98.4667 85.5089 98.0667 85.1222 97.56C84.7356 97.04 84.5222 96.4467 84.4822 95.78H86.3622C86.4156 96.3267 86.6689 96.7733 87.1222 97.12C87.5889 97.4667 88.1956 97.64 88.9422 97.64C89.6356 97.64 90.1822 97.4867 90.5822 97.18C90.9822 96.8733 91.1822 96.4867 91.1822 96.02C91.1822 95.54 90.9689 95.1867 90.5422 94.96C90.1156 94.72 89.4556 94.4867 88.5622 94.26C87.7489 94.0467 87.0822 93.8333 86.5622 93.62C86.0556 93.3933 85.6156 93.0667 85.2422 92.64C84.8822 92.2 84.7022 91.6267 84.7022 90.92C84.7022 90.36 84.8689 89.8467 85.2022 89.38C85.5356 88.9133 86.0089 88.5467 86.6222 88.28C87.2356 88 87.9356 87.86 88.7222 87.86C89.9356 87.86 90.9156 88.1667 91.6622 88.78C92.4089 89.3933 92.8089 90.2333 92.8622 91.3H91.0422C91.0022 90.7267 90.7689 90.2667 90.3422 89.92C89.9289 89.5733 89.3689 89.4 88.6622 89.4C88.0089 89.4 87.4889 89.54 87.1022 89.82C86.7156 90.1 86.5222 90.4667 86.5222 90.92C86.5222 91.28 86.6356 91.58 86.8622 91.82C87.1022 92.0467 87.3956 92.2333 87.7422 92.38C88.1022 92.5133 88.5956 92.6667 89.2222 92.84C90.0089 93.0533 90.6489 93.2667 91.1422 93.48C91.6356 93.68 92.0556 93.9867 92.4022 94.4C92.7622 94.8133 92.9489 95.3533 92.9622 96.02C92.9622 96.62 92.7956 97.16 92.4622 97.64C92.1289 98.12 91.6556 98.5 91.0422 98.78C90.4422 99.0467 89.7489 99.18 88.9622 99.18Z" fill="black"/>
<defs>
<clipPath id="clip0_136_104">
<rect width="38" height="38" fill="white" transform="translate(28.9993)"/>
</clipPath>
</defs>
</svg>
