<svg width="85" height="108" viewBox="0 0 85 108" fill="none" xmlns="http://www.w3.org/2000/svg">
<path d="M42.499 0.696777L58.3323 6.23844V19.0001C58.3323 25.5345 54.3218 30.1024 50.5803 32.9382C48.3235 34.6347 45.8467 36.0169 43.2178 37.0469L43.0801 37.0992L43.0405 37.1134L43.0294 37.1166L43.0247 37.1182C43.0247 37.1182 43.0215 37.1182 42.499 35.6251L41.9749 37.1198L41.9686 37.1166L41.9575 37.1134L41.9179 37.0976L41.7802 37.0469C41.0334 36.7582 40.2992 36.438 39.5793 36.0874C37.7623 35.2047 36.0338 34.1502 34.4177 32.9382C30.6778 30.1024 26.6657 25.5345 26.6657 19.0001V6.23844L42.499 0.696777ZM42.499 35.6251L41.9749 37.1198L42.499 37.3034L43.0231 37.1198L42.499 35.6251ZM42.499 33.9278L42.5133 33.9214C44.7041 33.0159 46.7719 31.8376 48.6677 30.4144C52.0528 27.8509 55.1657 24.1032 55.1657 19.0001V8.48678L42.499 4.05344L29.8323 8.48678V19.0001C29.8323 24.1032 32.9452 27.8478 36.3303 30.4159C38.2303 31.8419 40.303 33.0218 42.499 33.9278ZM52.113 13.2099L40.9173 24.4056L34.1992 17.6891L36.4396 15.4487L40.9157 19.9279L49.8726 10.971L52.113 13.2099Z" fill="#D25400"/>
<path d="M29.583 79.168C28.351 79.168 27.247 78.968 26.271 78.568C25.295 78.168 24.511 77.576 23.919 76.792C23.343 76.008 23.039 75.064 23.007 73.96H27.375C27.439 74.584 27.655 75.064 28.023 75.4C28.391 75.72 28.871 75.88 29.463 75.88C30.071 75.88 30.551 75.744 30.903 75.472C31.255 75.184 31.431 74.792 31.431 74.296C31.431 73.88 31.287 73.536 30.999 73.264C30.727 72.992 30.383 72.768 29.967 72.592C29.567 72.416 28.991 72.216 28.239 71.992C27.151 71.656 26.263 71.32 25.575 70.984C24.887 70.648 24.295 70.152 23.799 69.496C23.303 68.84 23.055 67.984 23.055 66.928C23.055 65.36 23.623 64.136 24.759 63.256C25.895 62.36 27.375 61.912 29.199 61.912C31.055 61.912 32.551 62.36 33.687 63.256C34.823 64.136 35.431 65.368 35.511 66.952H31.071C31.039 66.408 30.839 65.984 30.471 65.68C30.103 65.36 29.631 65.2 29.055 65.2C28.559 65.2 28.159 65.336 27.855 65.608C27.551 65.864 27.399 66.24 27.399 66.736C27.399 67.28 27.655 67.704 28.167 68.008C28.679 68.312 29.479 68.64 30.567 68.992C31.655 69.36 32.535 69.712 33.207 70.048C33.895 70.384 34.487 70.872 34.983 71.512C35.479 72.152 35.727 72.976 35.727 73.984C35.727 74.944 35.479 75.816 34.983 76.6C34.503 77.384 33.799 78.008 32.871 78.472C31.943 78.936 30.847 79.168 29.583 79.168ZM44.3486 79.168C43.1166 79.168 42.0126 78.968 41.0366 78.568C40.0606 78.168 39.2766 77.576 38.6846 76.792C38.1086 76.008 37.8046 75.064 37.7726 73.96H42.1406C42.2046 74.584 42.4206 75.064 42.7886 75.4C43.1566 75.72 43.6366 75.88 44.2286 75.88C44.8366 75.88 45.3166 75.744 45.6686 75.472C46.0206 75.184 46.1966 74.792 46.1966 74.296C46.1966 73.88 46.0526 73.536 45.7646 73.264C45.4926 72.992 45.1486 72.768 44.7326 72.592C44.3326 72.416 43.7566 72.216 43.0046 71.992C41.9166 71.656 41.0286 71.32 40.3406 70.984C39.6526 70.648 39.0606 70.152 38.5646 69.496C38.0686 68.84 37.8206 67.984 37.8206 66.928C37.8206 65.36 38.3886 64.136 39.5246 63.256C40.6606 62.36 42.1406 61.912 43.9646 61.912C45.8206 61.912 47.3166 62.36 48.4526 63.256C49.5886 64.136 50.1966 65.368 50.2766 66.952H45.8366C45.8046 66.408 45.6046 65.984 45.2366 65.68C44.8686 65.36 44.3966 65.2 43.8206 65.2C43.3246 65.2 42.9246 65.336 42.6206 65.608C42.3166 65.864 42.1646 66.24 42.1646 66.736C42.1646 67.28 42.4206 67.704 42.9326 68.008C43.4446 68.312 44.2446 68.64 45.3326 68.992C46.4206 69.36 47.3006 69.712 47.9726 70.048C48.6606 70.384 49.2526 70.872 49.7486 71.512C50.2446 72.152 50.4926 72.976 50.4926 73.984C50.4926 74.944 50.2446 75.816 49.7486 76.6C49.2686 77.384 48.5646 78.008 47.6366 78.472C46.7086 78.936 45.6126 79.168 44.3486 79.168ZM57.1223 75.832H62.4983V79H53.0183V62.152H57.1223V75.832Z" fill="black"/>
<path d="M0.859023 96.02C0.859023 94.66 1.16569 93.44 1.77902 92.36C2.39236 91.2667 3.22569 90.4133 4.27902 89.8C5.34569 89.1867 6.52569 88.88 7.81902 88.88C9.33902 88.88 10.6657 89.2467 11.799 89.98C12.9324 90.7133 13.759 91.7533 14.279 93.1H12.099C11.7124 92.26 11.1524 91.6133 10.419 91.16C9.69902 90.7067 8.83236 90.48 7.81902 90.48C6.84569 90.48 5.97236 90.7067 5.19902 91.16C4.42569 91.6133 3.81902 92.26 3.37902 93.1C2.93902 93.9267 2.71902 94.9 2.71902 96.02C2.71902 97.1267 2.93902 98.1 3.37902 98.94C3.81902 99.7667 4.42569 100.407 5.19902 100.86C5.97236 101.313 6.84569 101.54 7.81902 101.54C8.83236 101.54 9.69902 101.32 10.419 100.88C11.1524 100.427 11.7124 99.78 12.099 98.94H14.279C13.759 100.273 12.9324 101.307 11.799 102.04C10.6657 102.76 9.33902 103.12 7.81902 103.12C6.52569 103.12 5.34569 102.82 4.27902 102.22C3.22569 101.607 2.39236 100.76 1.77902 99.68C1.16569 98.6 0.859023 97.38 0.859023 96.02ZM26.9882 97.1C26.9882 97.4467 26.9682 97.8133 26.9282 98.2H18.1682C18.2349 99.28 18.6016 100.127 19.2682 100.74C19.9482 101.34 20.7682 101.64 21.7282 101.64C22.5149 101.64 23.1682 101.46 23.6882 101.1C24.2216 100.727 24.5949 100.233 24.8082 99.62H26.7682C26.4749 100.673 25.8882 101.533 25.0082 102.2C24.1282 102.853 23.0349 103.18 21.7282 103.18C20.6882 103.18 19.7549 102.947 18.9282 102.48C18.1149 102.013 17.4749 101.353 17.0082 100.5C16.5416 99.6333 16.3082 98.6333 16.3082 97.5C16.3082 96.3667 16.5349 95.3733 16.9882 94.52C17.4416 93.6667 18.0749 93.0133 18.8882 92.56C19.7149 92.0933 20.6616 91.86 21.7282 91.86C22.7682 91.86 23.6882 92.0867 24.4882 92.54C25.2882 92.9933 25.9016 93.62 26.3282 94.42C26.7682 95.2067 26.9882 96.1 26.9882 97.1ZM25.1082 96.72C25.1082 96.0267 24.9549 95.4333 24.6482 94.94C24.3416 94.4333 23.9216 94.0533 23.3882 93.8C22.8682 93.5333 22.2882 93.4 21.6482 93.4C20.7282 93.4 19.9416 93.6933 19.2882 94.28C18.6482 94.8667 18.2816 95.68 18.1882 96.72H25.1082ZM31.2106 93.82C31.5306 93.1933 31.9839 92.7067 32.5706 92.36C33.1706 92.0133 33.8973 91.84 34.7506 91.84V93.72H34.2706C32.2306 93.72 31.2106 94.8267 31.2106 97.04V103H29.3906V92.04H31.2106V93.82ZM39.0715 93.54V100C39.0715 100.533 39.1849 100.913 39.4115 101.14C39.6382 101.353 40.0315 101.46 40.5915 101.46H41.9315V103H40.2915C39.2782 103 38.5182 102.767 38.0115 102.3C37.5049 101.833 37.2515 101.067 37.2515 100V93.54H35.8315V92.04H37.2515V89.28H39.0715V92.04H41.9315V93.54H39.0715ZM45.0767 90.26C44.73 90.26 44.4367 90.14 44.1967 89.9C43.9567 89.66 43.8367 89.3667 43.8367 89.02C43.8367 88.6733 43.9567 88.38 44.1967 88.14C44.4367 87.9 44.73 87.78 45.0767 87.78C45.41 87.78 45.69 87.9 45.9167 88.14C46.1567 88.38 46.2767 88.6733 46.2767 89.02C46.2767 89.3667 46.1567 89.66 45.9167 89.9C45.69 90.14 45.41 90.26 45.0767 90.26ZM45.9567 92.04V103H44.1367V92.04H45.9567ZM53.5186 93.54H51.2186V103H49.3986V93.54H47.9786V92.04H49.3986V91.26C49.3986 90.0333 49.7119 89.14 50.3386 88.58C50.9786 88.0067 51.9986 87.72 53.3986 87.72V89.24C52.5986 89.24 52.0319 89.4 51.6986 89.72C51.3786 90.0267 51.2186 90.54 51.2186 91.26V92.04H53.5186V93.54ZM56.5806 90.26C56.2339 90.26 55.9406 90.14 55.7006 89.9C55.4606 89.66 55.3406 89.3667 55.3406 89.02C55.3406 88.6733 55.4606 88.38 55.7006 88.14C55.9406 87.9 56.2339 87.78 56.5806 87.78C56.9139 87.78 57.1939 87.9 57.4206 88.14C57.6606 88.38 57.7806 88.6733 57.7806 89.02C57.7806 89.3667 57.6606 89.66 57.4206 89.9C57.1939 90.14 56.9139 90.26 56.5806 90.26ZM57.4606 92.04V103H55.6406V92.04H57.4606ZM70.5625 97.1C70.5625 97.4467 70.5425 97.8133 70.5025 98.2H61.7425C61.8091 99.28 62.1758 100.127 62.8425 100.74C63.5225 101.34 64.3425 101.64 65.3025 101.64C66.0891 101.64 66.7425 101.46 67.2625 101.1C67.7958 100.727 68.1691 100.233 68.3825 99.62H70.3425C70.0491 100.673 69.4625 101.533 68.5825 102.2C67.7025 102.853 66.6091 103.18 65.3025 103.18C64.2625 103.18 63.3291 102.947 62.5025 102.48C61.6891 102.013 61.0491 101.353 60.5825 100.5C60.1158 99.6333 59.8825 98.6333 59.8825 97.5C59.8825 96.3667 60.1091 95.3733 60.5625 94.52C61.0158 93.6667 61.6491 93.0133 62.4625 92.56C63.2891 92.0933 64.2358 91.86 65.3025 91.86C66.3425 91.86 67.2625 92.0867 68.0625 92.54C68.8625 92.9933 69.4758 93.62 69.9025 94.42C70.3425 95.2067 70.5625 96.1 70.5625 97.1ZM68.6825 96.72C68.6825 96.0267 68.5291 95.4333 68.2225 94.94C67.9158 94.4333 67.4958 94.0533 66.9625 93.8C66.4425 93.5333 65.8625 93.4 65.2225 93.4C64.3025 93.4 63.5158 93.6933 62.8625 94.28C62.2225 94.8667 61.8558 95.68 61.7625 96.72H68.6825ZM72.2848 97.48C72.2848 96.36 72.5115 95.38 72.9648 94.54C73.4181 93.6867 74.0381 93.0267 74.8248 92.56C75.6248 92.0933 76.5181 91.86 77.5048 91.86C78.3581 91.86 79.1515 92.06 79.8848 92.46C80.6181 92.8467 81.1781 93.36 81.5648 94V88.2H83.4048V103H81.5648V100.94C81.2048 101.593 80.6715 102.133 79.9648 102.56C79.2581 102.973 78.4315 103.18 77.4848 103.18C76.5115 103.18 75.6248 102.94 74.8248 102.46C74.0381 101.98 73.4181 101.307 72.9648 100.44C72.5115 99.5733 72.2848 98.5867 72.2848 97.48ZM81.5648 97.5C81.5648 96.6733 81.3981 95.9533 81.0648 95.34C80.7315 94.7267 80.2781 94.26 79.7048 93.94C79.1448 93.6067 78.5248 93.44 77.8448 93.44C77.1648 93.44 76.5448 93.6 75.9848 93.92C75.4248 94.24 74.9781 94.7067 74.6448 95.32C74.3115 95.9333 74.1448 96.6533 74.1448 97.48C74.1448 98.32 74.3115 99.0533 74.6448 99.68C74.9781 100.293 75.4248 100.767 75.9848 101.1C76.5448 101.42 77.1648 101.58 77.8448 101.58C78.5248 101.58 79.1448 101.42 79.7048 101.1C80.2781 100.767 80.7315 100.293 81.0648 99.68C81.3981 99.0533 81.5648 98.3267 81.5648 97.5Z" fill="black"/>
</svg>
